<?xml version="1.0" encoding="utf-8"?>
<!-- Generator: Adobe Illustrator 16.0.2, SVG Export Plug-In . SVG Version: 6.00 Build 0)  -->
<!DOCTYPE svg PUBLIC "-//W3C//DTD SVG 1.0//EN" "http://www.w3.org/TR/2001/REC-SVG-20010904/DTD/svg10.dtd">
<svg version="1.0" id="svg2" xmlns:svg="http://www.w3.org/2000/svg"
	 xmlns="http://www.w3.org/2000/svg" xmlns:xlink="http://www.w3.org/1999/xlink" x="0px" y="0px" width="537px" height="245px"
	 viewBox="0 0 537 245" enable-background="new 0 0 537 245" xml:space="preserve">
<g id="_x23_584023ff">
	<path id="path24" fill="#584023" d="M154.34,32.42c2-3.04,3.49-6.46,6.16-9.04c-0.56,4-0.91,8.16-2.37,11.94
		c-4.42,6.69-8.439,13.68-11.58,21.06c4.391-2.73,7.721-6.76,11.61-10.12c0.87,1.72,2.8,3.36,2.18,5.47
		c-0.89,3.5-2.55,6.75-3.83,10.12c0.9,0.83,1.79,1.66,2.69,2.49c3.57-5.11,6.99-10.37,11-15.16c1.89-2.08,3.9-4.52,6.82-5.06
		c2.149-0.38,4,1.49,4.42,3.48c1.57,5.66-1.15,11.67-5.351,15.48c-4.029,3.96-9.29,6.19-14.09,9.03c-1.67,0.87-1.439,3.04-2,4.58
		c6.82,1.03,12.681-2.88,18.46-5.8c0.761,5.24-4.569,7.37-8.5,8.99c-2.989,1.05-6.6,2.76-9.59,0.79c-3.39-2.63-3.56-8.12-8.06-9.57
		c-1.261,3.11-2.42,6.26-3.771,9.33c-0.99-1.92-2.55-3.97-1.53-6.23c2.11-7.08,5.99-13.52,7.78-20.73
		c-1.96,1.07-4.069,2.02-5.649,3.65c-6.9,7.96-10.271,18.32-17.25,26.22c-0.74-1.76-2.2-3.65-1.2-5.62
		c5.38-14.01,15.27-25.79,20.66-39.78c-3.101,0.52-6.53,1.19-8.271,4.13c-9.09,12.38-15.92,26.25-24.31,39.08
		c-1.33-2.08-1.9-4.54-0.311-6.66c6.57-11.51,13.94-22.56,20.67-33.979c-7.369-0.28-14.64,1.63-21.989,1.3
		c-2.681,0.04-3.66-2.66-4.69-4.63c10.44,1.25,21.34,1.47,31.39-2.06C147.27,34.03,151.37,34.68,154.34,32.42 M164.97,64.64
		c7.119-2.05,14.229-7.85,13.979-15.9C172.29,51.8,168.1,58.3,164.97,64.64z"/>
	<path id="path26" fill="#584023" d="M211.6,24.62c2.09-1.54,2.689,2.5,1.88,3.85c-3.72,8.43-8.32,16.46-12.17,24.84
		c-3.69,8.13-9.41,15.76-9.78,25c5.78-1.32,11.7-3.54,15.88-7.88c1.311-3.4,1.271-7.14,2.561-10.54c1.18-2.33,3.13-4.15,4.68-6.24
		c3.62-4.64,7.25-9.77,12.83-12.18c2.79-1.59,5.54,1.53,5.93,4.14c1.16,6.41-2.439,12.6-6.63,17.17c-2.97,3.42-7.13,5.35-11.34,6.77
		c-2.72,0.5-2.891,3.58-3.851,5.65c5.71,0.94,11.87-0.47,16.181-4.41c2.27-3.15,3.569-6.93,6.109-9.91
		c3.9-4.76,8.2-9.28,13.311-12.75c1.82-1.14,4.51-2.61,6.359-0.72c1.79,1.39,1.79,3.77,0.69,5.58c-2.54,0.5-5.43,0-7.62,1.63
		c-3.56,2.65-6.47,6.1-8.87,9.81c3.3-1.95,6.29-4.36,9.471-6.49c4.76,4.46,1.439,10.92,1.47,16.42c1.54-1.36,3.63-2.57,3.66-4.89
		c1.22-9.67,6.14-19.34,14.46-24.73c2.02-1.87,5.33-0.32,5.51,2.33c0.22,4.3-0.89,8.68-2.8,12.52c-3.59,5.61-9.24,9.47-13.181,14.8
		c4.83,0.31,8.431-3.37,12.091-5.94c6-4.42,10.949-10.06,15.1-16.22c1.27,1.45,2.88,3.32,2.06,5.39c-1.18,3.89-3.09,7.55-3.89,11.57
		c6.45-4.71,10.29-12,16.45-17.03c0.59,1.65,2.13,3.41,1.17,5.23c-2.38,5.33-5.57,10.4-6.72,16.21c-0.58,2.18,0.479,4.28,1.09,6.32
		c-0.48,0.51-1.43,1.53-1.91,2.04c-3.28-3.59-3.23-8.47-2.9-13.02c-3.96,3.63-7.329,8.47-12.869,9.72
		c-1.2-3.19-1.221-6.56-0.53-9.86c-4.86,3.76-9.44,8.15-15.22,10.45c-2.86,1.13-5.271-1.45-7.57-2.72
		c-2.66,2.39-6.141,4.38-7.21,8.02c-2.92,8.61-5.28,18.3-12.561,24.38c-2.029,1.92-4.83,0.27-6.46-1.35
		c-1.899-2.47-2.279-6.13-0.8-8.92c3.22-6.71,9.07-11.6,14.41-16.6c5.06-3.96,4.86-11.07,5.47-16.87
		c-5.46,3.03-8.89,9.4-15.45,10.32c-4.3,0.87-7.88,3.75-12.199,4.5c-3.721,0.63-6.891-1.75-9.91-3.51
		c-4.4,2.31-8.771,5.71-13.931,5.68c-4.039-0.14-6.029-4.56-5.369-8.11c0.96-6,4.05-11.34,6.779-16.67
		c3.971-7.18,7.24-14.71,11-22.01C208.3,31.87,209.36,27.93,211.6,24.62 M223.97,49.97c-4.171,3.98-8.08,8.58-9.57,14.27
		c8.74-1.5,15.28-9.38,16.52-17.97C228.45,47.17,225.88,48.09,223.97,49.97 M256.87,66.71c6.16-3.26,10.78-9.28,11.99-16.18
		C261.94,52.79,258.32,60.05,256.87,66.71 M227.97,105.3c7.239-2,9.96-10.15,12.069-16.54C234.14,92.51,229.52,98.42,227.97,105.3z"
		/>
	<path id="path28" fill="#584023" d="M332.5,25.42c0.95,1.5,2.62,3.03,1.91,4.98c-2.89,12.32-9.529,23.29-16.199,33.89
		c-1.74,2.51-2.11,5.59-2.521,8.53c3.03,0.38,6.17,0.91,9.19,0.08c3.569-0.94,6.779-2.87,10.27-4.08
		c-2.33,6.55-9.81,9.04-16.189,8.78c-2.94-0.3-4.931-2.78-7.08-4.53c-3.37,2.79-6.46,6.57-10.891,7.57
		c-4.23-0.33-5.68-5.56-4.34-9.01c2.71-8.02,8.76-14.64,15.79-19.18c2.9-2.14,7.74-0.8,9.46-4.51
		C326.12,40.76,327.58,32.25,332.5,25.42 M299.881,75.65c8.479-3.48,14.92-11.28,17.22-20.11
		C308.77,59.06,301.66,66.63,299.881,75.65z"/>
	<path id="path30" fill="#584023" d="M382.4,35.41c2.51-3.94,6.66-7.43,11.561-7.35c2.14-0.11,3.189,2.02,4.449,3.37
		c-4.47,1.39-9.43,2.59-12.439,6.5c-5.971,7.46-8.69,16.93-10.51,26.17c3.229-0.22,6.439-0.6,9.649-0.95
		c0.03,1.27,0.05,2.54,0.07,3.82c-3.771,1.28-7.8,1.97-11.33,3.86c-2.851,4.14-4.07,9.15-6.44,13.56
		c-4.189,8.65-11.1,16.05-19.56,20.64c-0.57-1.47-3-3.61-0.9-4.91c3.891-2.78,7.931-5.44,11.11-9.06
		c5.32-5.27,8.1-12.35,10.85-19.17c-1.189-0.78-2.38-1.57-3.569-2.35c-3.891,4.62-7.65,10.12-13.61,12.14
		c-4.93,1.49-7.99-4.44-7.57-8.58c1.03-8.84,6.92-15.93,12.32-22.58c1.4-2.1,4.21-1.32,6.33-1.59c1.91,5.61,3.57,11.36,3.56,17.36
		c1.46-0.13,2.92-0.26,4.391-0.4C373.97,55.51,376.43,44.65,382.4,35.41 M347.62,77.48c5.301-1.1,9.98-4.42,13-8.88
		c2.801-4.29,3.521-10.14,0.58-14.56C353.591,59.4,347.4,67.81,347.62,77.48z"/>
	<path id="path32" fill="#584023" d="M12.357,92.321c70.51-0.17,212.132,0.112,212.132,0.112l0.001,2.757L12.357,94.952
		C12.357,94.952,12.357,92.93,12.357,92.321L12.357,92.321z"/>
	<path id="path34" fill="#584023" d="M247.15,92.78c32.91-0.39,67.18,0.016,100.1-0.064c0,0.296,0,2.337,0,2.634
		c-26.76,0.24-97.416,0.09-100.101,0.09C247.149,94.9,247.143,93.31,247.15,92.78L247.15,92.78L247.15,92.78z"/>
	<path id="path36" fill="#584023" d="M366.125,92.857l144.828,0.014l-0.007,3.01l-144.821-0.363V92.857z"/>
	<path id="path38" fill="#584023" d="M13.06,227.891c0.021-0.145,0.021-2.116,0.021-2.116L345.1,226.4l-0.018,2.25
		C345.083,228.65,43.71,228.279,13.06,227.891L13.06,227.891z"/>
	<path id="path40" fill="#584023" d="M344.987,226.403c54.36-0.36,164.049-0.079,164.049-0.079l0.024,2.546l-163.987-0.225
		C345.073,228.646,345.107,226.732,344.987,226.403L344.987,226.403L344.987,226.403L344.987,226.403z"/>
</g>
<g id="_x23_fe383bff">
	<path id="path43" fill="#FE383B" d="M198.605,114.309l1.965,27.582c0,0-4,0.42-5.21-1.16c-4.45-6.01-5.9-14.291-12.21-18.851
		c-6.45-3.57-14.26-2.67-21.32-2.14c-4.399,0.12-6.16,4.731-6.33,8.47c-0.37,6.8-0.58,13.66,0.12,20.44
		c0.13,2.539,1.811,4.97,4.561,4.99c9.239,0.799,27.77-0.261,27.77-0.261l0.4,6.78c0,0-19.511-1.939-29.141,0.05
		c-3.62,0.62-3.7,4.91-4.05,7.78c-0.64,9.369-1,18.92,0.71,28.199c0.771,4.16,5.64,4.681,9.08,4.67
		c6.42-0.039,13.8,0.67,18.99-3.899c6.81-6.319,9.68-15.54,15.34-22.72c1.37-1.93,5.95-1.58,5.95-1.58s0.069,7.449-0.54,11.119
		c-1.431,8.33-4.03,25.011-4.03,25.011s-12.36-2.36-18.66-2.319c-21.95,0.02-65.84,0.049-65.84,0.049l0.25-3.83
		c0,0,7.521-3.119,9.66-6.56c2.21-4.319,2.38-9.319,2.479-14.08c0.051-16.03,0.051-32.069,0.07-48.101
		c-0.11-3.67-0.01-7.949-2.85-10.719c-3.021-2.59-10.42-5.601-10.42-5.601l0.05-3.23L198.605,114.309z"/>
	<path id="path45" fill="#FE383B" d="M26.15,112.08c0,0,15.85,1.87,23.85,1.7c11.65,0.86,60.26,0.56,60.26,0.56
		s-7.13,12.03-11.489,17.42c-15.28,19.12-30.761,38.1-45.04,57.99c-2.28,2.9-3.91,6.221-4.95,9.75c8.6,0.35,17.21,0.3,25.81,0.05
		c6.061-0.3,12.67-1.329,17.181-5.78c6.02-5.83,8.35-14.209,13.12-20.91c1.27-2.359,6.159-1.119,6.159-1.119l-3.27,36.22
		c0,0-10.45-2.05-15.76-2.34c-26.67-0.32-80-0.22-80-0.22s1.2-4.7,2.739-6.57c8.5-10.57,47.12-59.301,58.03-73.03
		c1.53-1.81,1.94-4.19,2.61-6.39c-7.05-0.11-14.11-0.18-21.15,0.07c-4.45,0.24-9.229,1.01-12.66,4.09
		c-5.479,4.92-8.01,12.039-12.079,17.99c-1.04,1.93-3.391,1.939-5.24,2.469C22.96,137.359,26.15,112.08,26.15,112.08z"/>
	<path id="path47" fill="#FE383B" d="M205.69,114.4c17.399-0.07,34.81-0.16,52.21-0.01c-0.04,1.11-0.061,2.21-0.09,3.32
		c-3.561,2-7.66,3.58-10.16,6.96c-2.62,4.28-2.88,9.49-3.101,14.359c-0.27,15.341-0.18,30.671-0.26,46.011
		c0.11,4.2-0.12,8.79,2.181,12.51c2.09,3.06,6.22,2.931,9.51,3.11c6.8,0.119,14.55,0.109,19.87-4.811
		c5.489-5.55,8.83-12.729,12.439-19.539c0.94-1.681,1.891-3.461,3.42-4.69c1.71-0.13,3.431,0.05,5.141,0.149
		c-0.181,3.971-0.36,7.961-1.23,11.84c-1.82,7.92-2.35,16.07-4.5,23.92c-16.3-2.149-73-0.229-84.91-1.529
		c0.141-1.109,0.271-2.221,0.41-3.33c3.36-1.811,7.351-3.141,9.58-6.43c2.51-5.02,2.31-10.811,2.44-16.27
		c-0.08-15.191,0.39-30.391,0.02-45.57c-0.26-3.7-0.2-8.16-3.36-10.711C211.99,120.66,206.28,119.6,205.69,114.4z"/>
	<path id="path49" fill="#FE383B" d="M295.1,114.89c17.6-1.07,71.229-1.09,80.38-0.34c9.36,0.91,18.62,4.96,25.04,11.931
		c6.93,8.09,9.2,19.119,9.19,29.52c-0.021,13.109-2.99,26.88-11.521,37.189c-5.899,7.431-14.89,12.11-24.24,13.371
		c-10.899,1.56-21.979,1.039-32.92,0.16c-14.5-0.41-29.01,0.039-43.51-0.311c-0.101-1.04-0.2-2.08-0.3-3.11
		c2.79-2.159,5.93-4.079,7.93-7.069c2.65-4.59,2.51-10.08,2.61-15.211c0.01-14.34,0.14-28.689-0.07-43.039
		c-0.21-4.48-0.07-9.311-2.4-13.301c-2.55-2.98-6.329-4.47-9.689-6.32C295.43,117.2,295.26,116.05,295.1,114.89 M342.36,119.48
		c-2.38,0.52-4.93,1.41-6.35,3.54c-1.59,2.311-1.59,5.23-1.681,7.92c0.051,19.681-0.05,39.371,0.051,59.051
		c0.08,3.33,0.58,7.08,3.189,9.46c2.59,2.13,19.72,2.63,24.4,0.42c7.17-3.3,12.09-10.091,14.47-17.46
		c4.23-10.92,3.43-22.84,3.08-34.301c-0.78-9.25-3.64-19.359-11.41-25.169C360.57,118.09,350.93,117.77,342.36,119.48L342.36,119.48
		z"/>
	<path id="path51" fill="#FE383B" d="M448.631,114.67c6.859-0.97,13.83-0.29,20.739-0.31c5.341,19.39,24.96,71.84,28.521,78.871
		c2.66,5.43,8.81,7.35,13.3,10.879c-3.08,1.861-6.59,2.681-10.17,2.371c-14.4-0.44-43.19-0.301-43.19-0.301l-0.119-3.109
		c0,0,10.52-4.271,9.529-9.961c-1.05-6.159-1.89-12.739-5.26-18.119c-6.7-3.5-14.75-1.78-22.01-1.73
		c-4.311,0.26-9.92-0.05-12.34,4.32c-3.141,5.58-5.25,12.35-3.851,18.75c2.2,3.35,10.03,5.98,10.03,5.98l-0.26,4.1
		c0,0-26.32,0.119-39.471-0.061c0.511-1.459,0.24-3.52,1.84-4.32c3.351-2.139,7.212-3.328,10.471-5.659
		C412.5,192,445.62,118.15,448.631,114.67 M432.92,167.51l26.83,0.49l-12.729-36L432.92,167.51z"/>
</g>
<g id="text3752" transform="translate(-0.7,0)">
	<path id="path3757" fill="#FE383B" d="M478.706,118.612h5.647v1.485h-1.895v4.528H480.6v-4.528h-1.895V118.612z"/>
	<path id="path3759" fill="#FE383B" d="M484.308,118.612h2.444l0.943,3.659l0.939-3.659h2.437v6.013h-1.518v-4.585l-1.178,4.585
		h-1.374l-1.173-4.585v4.585h-1.521V118.612z"/>
</g>
</svg>
